<svg xmlns="http://www.w3.org/2000/svg" data-name="Layer 1" viewBox="0 0 100 125" x="0px" y="0px"><path d="M83.69,67.8a2,2,0,0,0-1.62-1.36L72,65l-4.51-9.13a2,2,0,0,0-3.59,0L59.39,65,49.31,66.44a2,2,0,0,0-1.11,3.41L55.49,77,53.77,87a2,2,0,0,0,2.9,2.11l9-4.74,9,4.74A2,2,0,0,0,77.61,87L75.89,77l7.29-7.11A2,2,0,0,0,83.69,67.8Zm-11.35,7a2,2,0,0,0-.58,1.77L73,83.69l-6.36-3.34a2,2,0,0,0-1.86,0L58.4,83.69l1.21-7.08A2,2,0,0,0,59,74.84l-5.15-5,7.11-1a2,2,0,0,0,1.51-1.09l3.18-6.44,3.18,6.44a2,2,0,0,0,1.51,1.09l7.11,1Z"/><path d="M88.17,42.66a2,2,0,0,0-2-2H13.83a2,2,0,0,0,0,4H86.17A2,2,0,0,0,88.17,42.66Z"/><path d="M11.83,12.66a2,2,0,0,0,2,2H86.17a2,2,0,0,0,0-4H13.83A2,2,0,0,0,11.83,12.66Z"/><path d="M36.17,74.66a2,2,0,1,0,0-4H13.83a2,2,0,1,0,0,4Z"/></svg>
