<svg xmlns="http://www.w3.org/2000/svg" data-name="Layer 1" viewBox="0 0 100 125" x="0px" y="0px"><path d="M95.6,58,90.26,44.85c-1.09-4.11-2.35-8.18-3.72-12.22q-1-3-2.12-6.05l-1.11-3L82.74,22a7.46,7.46,0,0,0-1.4-2.29,7.55,7.55,0,0,0-4.68-2.45,7.37,7.37,0,0,0-2.69.16,6.13,6.13,0,0,0-.65.19l-.3.1-.19.07-.75.29-6,2.31c-4,1.54-8,3.06-12,4.49a4.2,4.2,0,0,0-1.86,1.66c-.43,1,.7,1.21,2.22,1.14a60.06,60.06,0,0,0,16.27-3.56l2.52-.87,1.26-.43.32-.11.25-.08a1.78,1.78,0,0,1,.32-.06,2.11,2.11,0,0,1,2.09,1.07l3.36,9.59c2.37,6.71,4.86,13.38,7.64,20l1.73,5L93,66.17l.36,1,.17.46c0,.06,0,.11,0,.16a1.5,1.5,0,0,1,0,.65,1.44,1.44,0,0,1-.82,1l-3.8,1.5L85,72.46q-3.88,1.6-7.71,3.3c-.44.2-.86.4-1.26.61q.06-7.09,0-14.17,0-6.45-.13-12.89l-.06-3.22v-.4l0-.49a7.59,7.59,0,0,0-.17-1.3,7.25,7.25,0,0,0-5.16-5.37,7.75,7.75,0,0,0-1.27-.22l-.64,0h-.44l-1.61.06c-4.87.18-8.92.88-8.56,2.27s3.79,2.2,8.79,2.35l1.69.05a2.42,2.42,0,0,1,.88.21,2.33,2.33,0,0,1,1.19,1.22,2.24,2.24,0,0,1,.17.82v.69l0,.85-.08,3.38c-.1,4.51-.16,9-.15,13.54,0,7.25.12,14.5.23,21.75l.08,5.44a4,4,0,0,1-.15,1.8,2.34,2.34,0,0,1-.88,1.07,2.07,2.07,0,0,1-.64.3,2.77,2.77,0,0,1-.35.08c-.13,0-.2,0-.47,0l-2.72,0-5.44.08c-8.8-.59-17.67-.87-26.58-1l-.49-.49a12.57,12.57,0,0,0,1.34-4.9c.22-2.84.5-5.69.66-8.54l.05-1.07,0-.53c0-.26,0-.57,0-.86a7,7,0,0,0-3.82-5.61,6.94,6.94,0,0,0-3.4-.72c-.74-.06-1.42-.13-2.14-.17a68.36,68.36,0,0,0-13.42.29c0-5.31,0-10.62.08-15.92a8.7,8.7,0,0,0-.89-3.58c-.74-1.14-1.38.34-1.86,2.57A122.7,122.7,0,0,0,7.43,73.3a1.71,1.71,0,0,0,.44,1.23l.12.13c1.28,1.41,2.6,2.82,3.95,4.22L30.42,98.16a2.55,2.55,0,0,0,1.79.78h.1c6.47.12,12.94.21,19.42.23l9.73,0,4.87-.06,1.22,0h.61c.21,0,.36,0,.75,0a7.47,7.47,0,0,0,6.92-6.75c0-.65,0-.83,0-1.21l0-1,0-2c0-2.44.06-4.88.09-7.31A14.16,14.16,0,0,0,79.11,80l8.36-2.78,4.16-1.45L93.7,75l1.06-.4a6.9,6.9,0,0,0,1.51-.82,7,7,0,0,0,2.82-4.59A6.91,6.91,0,0,0,99,66.48a17.13,17.13,0,0,0-.71-2ZM16,75.7c1.14.1,2.28.16,3.42.14,1.89,0,3.78-.12,5.67-.23l2.8-.17a2.28,2.28,0,0,1,1.46.34c0-.1.05-.2.08-.31a1.27,1.27,0,0,1-.08.31,2.63,2.63,0,0,1,.31,1.31,2.09,2.09,0,0,1-.08.55,4.52,4.52,0,0,0-.07.5l-.06.64c-.16,1.71-.21,3.43-.22,5.14s0,3.35,0,5Q22.71,82.31,16,75.7Z"/><path d="M3.17,23.24a7.22,7.22,0,0,0,2.6,1.38,12,12,0,0,0,5.07.31l.78-.13c.15,3.38.45,6.82.4,10.28,0,.6,0,1.19-.09,1.78,0,.3-.07.59-.1.88l-.05.44c0,.14,0,.49-.05.72a6,6,0,0,0,3,5.31,6.21,6.21,0,0,0,1.52.61A7.45,7.45,0,0,0,17,45l.62.06A14.34,14.34,0,0,0,20,45a21.6,21.6,0,0,0,4.33-.85,30.92,30.92,0,0,0,7.4-3.39c.76,1.86,1.38,3.82,2.91,5.16.1.24.19.49.3.72a8.89,8.89,0,0,0,3,3.77c.41.27,1.2.18,2.32-.65s1.6-1.55,1.46-2a7.53,7.53,0,0,0-1-2.36,38.24,38.24,0,0,0-2.78-3c0-2-1-3.36-2-4.69a31.56,31.56,0,0,0,2.53-2.41,27.66,27.66,0,0,0,2.94-3.06,22.27,22.27,0,0,0,2-2.89,16.75,16.75,0,0,0,.83-1.67,12.27,12.27,0,0,0,.65-2,6.64,6.64,0,0,0-3.27-7.2,6.24,6.24,0,0,0-1.29-.55l-.8-.23a30.31,30.31,0,0,1-9.76-4.78c-.45-.32-.9-.62-1.34-.87.09-.19.2-.38.28-.58a10.23,10.23,0,0,0,.9-5.71,2.73,2.73,0,0,0-.68-1.28,2.43,2.43,0,0,0-1-.68c-.5-.12-.74.16-.86.56s-.13.93-.24,1.48a6.42,6.42,0,0,1-.92,2.32,15.25,15.25,0,0,1-1.41,1.93,39.3,39.3,0,0,1-3.41,3.57,22.89,22.89,0,0,1-10.51,5.58,10.39,10.39,0,0,1-2.61.24,3.87,3.87,0,0,1-1.72-.42.94.94,0,0,1-.45-.69A4.23,4.23,0,0,1,6,16.43,11.74,11.74,0,0,1,7.4,14.19a24.25,24.25,0,0,1,7-5.92,23.51,23.51,0,0,1,4.14-1.9,11.49,11.49,0,0,1,3.93-.69,7.83,7.83,0,0,0,1.56-.06A3.23,3.23,0,0,0,25.69,5a1.38,1.38,0,0,0,.47-.8A1.73,1.73,0,0,0,26,3.07a3.29,3.29,0,0,0-1-1.21,7.2,7.2,0,0,0-.79-.45,5.54,5.54,0,0,0-.92-.3,14.14,14.14,0,0,0-6.51.23,20.68,20.68,0,0,0-5.67,2.38,25.57,25.57,0,0,0-7.24,6.54A16.82,16.82,0,0,0,1.4,14.77a10.36,10.36,0,0,0-.56,2.76,7.1,7.1,0,0,0,.57,3.13A5.85,5.85,0,0,0,3.17,23.24ZM26.1,15.68a7.74,7.74,0,0,0,.73.82,29.1,29.1,0,0,0,5.47,4.18,25.25,25.25,0,0,0,3.13,1.55c.53.23,1.09.42,1.64.61.27.1.56.17.84.25l.75.22a1.17,1.17,0,0,1,.86,1.19,1.65,1.65,0,0,1-.06.31,4.75,4.75,0,0,1-.13.46c-.1.31-.23.64-.36,1a15.87,15.87,0,0,1-1.05,1.95,28.48,28.48,0,0,1-6.5,6.94,49,49,0,0,1-7.92,3.39,20.67,20.67,0,0,1-3.9.87,9.08,9.08,0,0,1-1.74,0,1.46,1.46,0,0,1-.39-.05l-.15-.09a.63.63,0,0,1-.22-.3.58.58,0,0,1,0-.19v0a.43.43,0,0,1,0-.09l0-.32,0-.65A30.65,30.65,0,0,0,17,32.53a34.77,34.77,0,0,0-2.19-8.6,24.94,24.94,0,0,0,4.62-2.28A27.32,27.32,0,0,0,26.1,15.68Z"/></svg>
