<svg xmlns="http://www.w3.org/2000/svg" xmlns:xlink="http://www.w3.org/1999/xlink" version="1.0" x="0px" y="0px" viewBox="0 0 640 550.625" enable-background="new 0 0 640 440.5" xml:space="preserve"><g><path d="M46.2,7.4c8.6,0,16.7,2.6,23.5,7.6c9.9,7.2,15,17.1,15,29.4c0,20.6-21.2,76.9-34.4,109.5C34.5,122.4,9.1,67.9,7.6,47.4   c-0.9-12.3,3.3-22.5,12.7-30.4C27.4,10.8,36.6,7.4,46.2,7.4 M46.2,0c-11,0-22,3.8-30.8,11.3c-9.4,8-16.5,20-15.2,36.7   C2.5,78.9,51,171.6,51,171.6S92.1,75.5,92.1,44.4c0-16.8-8-28.1-18-35.4C65.8,3,56,0,46.2,0L46.2,0z"/><path d="M61.2,64.4c16.8-22.1-8.2-47.1-30.3-30.3C14.1,56.3,39.1,81.3,61.2,64.4z"/></g><g><path d="M583.9,195.6c8.6,0,16.7,2.6,23.5,7.6c9.9,7.2,15,17.1,15,29.4c0,20.6-21.2,76.9-34.4,109.5c-15.7-31.5-41.2-86-42.7-106.6   c-0.9-12.3,3.3-22.5,12.7-30.4C565.1,199,574.3,195.6,583.9,195.6 M583.9,188.2c-11,0-22,3.8-30.8,11.3c-9.4,8-16.5,20-15.2,36.7   c2.4,31,50.8,123.7,50.8,123.7s41.2-96.1,41.2-127.2c0-16.8-8-28.1-18-35.4C603.5,191.1,593.7,188.2,583.9,188.2L583.9,188.2z"/><path d="M598.9,252.6c16.8-22.1-8.2-47.1-30.3-30.3C551.8,244.5,576.8,269.5,598.9,252.6z"/></g><g><path d="M283.3,81.5c8.6,0,16.7,2.6,23.5,7.6c9.9,7.2,15,17.1,15,29.4c0,20.6-21.2,76.9-34.4,109.5c-15.7-31.5-41.2-86-42.7-106.6   c-0.9-12.3,3.3-22.5,12.7-30.4C264.5,84.9,273.7,81.5,283.3,81.5 M283.3,74.1c-11,0-22,3.8-30.8,11.3c-9.4,8-16.5,20-15.2,36.7   c2.4,31,50.8,123.7,50.8,123.7s41.2-96.1,41.2-127.2c0-16.8-8-28.1-18-35.4C302.9,77,293.1,74.1,283.3,74.1L283.3,74.1z"/><circle cx="283.2" cy="123.4" r="20.7"/></g><g><path d="M35.3,195.3l-1.1-8.9c2-0.2,4-0.5,6-0.7l0.9,9C39.3,194.9,37.3,195.1,35.3,195.3z"/><path d="M629.3,423.3c-1-3.4-2.5-6.7-4.5-9.9l7.7-4.6c2.3,3.8,4.1,7.8,5.3,11.9L629.3,423.3z M618.2,404.6   c-0.2-0.2-0.4-0.4-0.5-0.6c-2.3-2.4-4.9-4.7-7.8-6.9l5.4-7.2c3.3,2.4,6.2,5.1,8.9,7.8c0.2,0.2,0.4,0.4,0.6,0.7L618.2,404.6z    M600.3,391c-3.2-1.8-6.6-3.5-10.3-5.1l3.6-8.2c4.1,1.8,7.7,3.6,11.1,5.5L600.3,391z M579.1,381.5c-3.6-1.3-7.4-2.6-11.1-3.8   l2.7-8.6c3.9,1.2,7.8,2.6,11.5,4L579.1,381.5z M319.7,378.8c-4.2-0.1-8.4-0.4-12.3-0.8l0.9-9c3.7,0.4,7.6,0.6,11.6,0.7L319.7,378.8   z M332,378.7l-0.3-9c3.7-0.1,7.7-0.4,11.7-0.7l0.8,9C339.9,378.3,335.8,378.6,332,378.7z M356.2,376.8l-1.1-8.9   c3.6-0.4,7.4-0.9,11.8-1.5l1.2,8.9C363.8,375.8,359.8,376.3,356.2,376.8z M295.2,376.3c-4.1-0.8-8.2-1.8-12.1-3l2.6-8.6   c3.6,1.1,7.3,2,11.2,2.8L295.2,376.3z M556.7,374.4c-3.7-1-7.6-1.9-11.5-2.7l1.9-8.8c4,0.9,8,1.8,11.8,2.8L556.7,374.4z    M380.1,373.5l-1.3-8.9l2.8-0.4c2.7-0.4,5.4-0.8,8-1.2l1.1-0.2l1.3,8.9l-1,0.1c-2.7,0.4-5.3,0.8-8,1.2L380.1,373.5z M403.7,370.1   l-1.2-8.9c4.1-0.5,8.1-1,12-1.5l1,8.9C411.7,369.1,407.7,369.6,403.7,370.1z M533.7,369.5c-3.8-0.7-7.7-1.2-11.7-1.8l1.2-8.9   c4,0.5,8.1,1.1,12,1.8L533.7,369.5z M271.2,368.6c-4-2-7.6-4.4-10.9-7l5.7-7c2.7,2.2,5.8,4.2,9.2,6L271.2,368.6z M427.4,367.4   l-0.9-9c4.1-0.4,8.1-0.7,12-1l0.7,9C435.4,366.7,431.4,367,427.4,367.4z M510.3,366.4c-3.8-0.4-7.8-0.7-11.8-0.9l0.5-9   c4.1,0.2,8.2,0.5,12.1,0.9L510.3,366.4z M451.1,365.6l-0.5-9c4-0.2,8.1-0.4,12.1-0.5l0.3,9C459,365.2,455,365.4,451.1,365.6z    M486.6,365c-3.4-0.1-6.9-0.1-10.4-0.1l-1.5,0l0-9l1.5,0c3.6,0,7.1,0,10.6,0.1L486.6,365z M251.4,351.8c-2.7-4.2-4.3-8.7-4.7-13.2   l9-0.8c0.3,3.1,1.4,6.1,3.3,9.1L251.4,351.8z M257.3,328.4l-8.2-3.8c1.6-3.5,4-7,7.6-10.9l6.7,6C260.5,323,258.6,325.7,257.3,328.4   z M271.6,311.3l-6.5-6.3c2.4-2.4,5.1-5.3,7.1-8.5l7.5,4.9C277.4,305.3,274.3,308.6,271.6,311.3z M285.2,289.1l-8.7-2.2   c0.7-2.7,1-5.6,1-8.6c0-0.7,0-1.3-0.1-2l9-0.5c0,0.8,0.1,1.6,0.1,2.5C286.5,282.1,286,285.7,285.2,289.1z M275.5,265.7   c-1-3.5-2.5-6.9-4.3-10.1l7.9-4.4c2.1,3.8,3.8,7.8,5.1,11.9L275.5,265.7z M264.8,246.6c-2.4-2.7-5.1-5.3-8.1-7.8l5.7-7   c3.4,2.8,6.5,5.7,9.2,8.8L264.8,246.6z M247.5,232.3c-3.1-1.9-6.4-3.8-10.1-5.6l4-8.1c3.9,2,7.5,3.9,10.8,6L247.5,232.3z    M226.7,221.8c-1.8-0.8-3.6-1.5-5.5-2.2c-1.8-0.7-3.7-1.4-5.5-2.1l3.2-8.4c1.9,0.7,3.8,1.4,5.6,2.2c1.9,0.7,3.8,1.5,5.6,2.3   L226.7,221.8z M204.6,213.4c-3.7-1.3-7.5-2.5-11.3-3.7l2.7-8.6c3.8,1.2,7.7,2.5,11.5,3.8L204.6,213.4z M182,206.4   c-3.8-1-7.6-2-11.5-3l2.1-8.7c3.9,0.9,7.9,2,11.7,3L182,206.4z M159,200.8c-3.8-0.8-7.8-1.6-11.6-2.2l1.6-8.9c4,0.7,8,1.5,11.9,2.3   L159,200.8z M135.7,196.7c-3.9-0.6-7.8-1.1-11.7-1.5l1-8.9c4,0.5,8,1,12,1.6L135.7,196.7z M112.1,194c-3.9-0.3-7.9-0.6-11.8-0.8   l0.5-9c4,0.2,8.1,0.5,12.1,0.8L112.1,194z M53,193.6l-0.6-9c4-0.3,8.1-0.5,12.1-0.7l0.4,9C60.9,193.1,56.9,193.4,53,193.6z    M88.5,192.8c-3.9-0.1-7.9-0.1-11.8-0.1l-0.1-9c4,0,8.1,0,12.1,0.1L88.5,192.8z"/><path d="M639.5,440.5l-8.9-1.4c0.3-1.7,0.4-3.5,0.4-5.3l9-0.1C640,436.1,639.9,438.3,639.5,440.5z"/></g></svg>
