<svg xmlns="http://www.w3.org/2000/svg" data-name="Layer 1" viewBox="0 0 100 125" x="0px" y="0px" style="fill: #fff;"><path d="M50,22.74a15,15,0,1,0,14.93,15A15,15,0,0,0,50,22.74Zm0,23a8,8,0,1,1,7.93-8A8,8,0,0,1,50,45.75Z"/><path d="M50,4.64c-18.09,0-33.23,14.51-34.47,33a35.77,35.77,0,0,0,7.3,23.69L47.2,94a3.5,3.5,0,0,0,5.61,0L77.17,61.35a35.78,35.78,0,0,0,7.3-23.69C83.23,19.15,68.09,4.64,50,4.64ZM71.56,57.16,50,86,28.44,57.16a28.78,28.78,0,0,1-5.92-19c.87-13,11.39-26.49,27.49-26.49S76.61,25.11,77.48,38.13A28.78,28.78,0,0,1,71.56,57.16Z"/></svg>
