<svg xmlns="http://www.w3.org/2000/svg" xmlns:xlink="http://www.w3.org/1999/xlink" version="1.1" x="0px" y="0px" viewBox="0 0 64 80" style="enable-background:new 0 0 64 64;" xml:space="preserve"><path d="M51,17H24v-1c0-0.6-0.4-1-1-1h-8c-0.6,0-1,0.4-1,1v1h-1c-1.1,0-2,0.9-2,2v26c0,1.1,0.9,2,2,2h38c1.1,0,2-0.9,2-2V19  C53,17.9,52.1,17,51,17z M32,44c-6.6,0-12-5.4-12-12s5.4-12,12-12s12,5.4,12,12S38.6,44,32,44z M48.5,23.5c-1.1,0-2-0.9-2-2  c0-1.1,0.9-2,2-2s2,0.9,2,2C50.5,22.6,49.6,23.5,48.5,23.5z M32,22c-5.5,0-10,4.5-10,10s4.5,10,10,10s10-4.5,10-10S37.5,22,32,22z   M28.5,30.5c-1.1,0-2-0.9-2-2c0-1.1,0.9-2,2-2s2,0.9,2,2C30.5,29.6,29.6,30.5,28.5,30.5z M32,33c-0.6,0-1-0.4-1-1c0-0.6,0.4-1,1-1  s1,0.4,1,1C33,32.6,32.6,33,32,33z"/></svg>
