<svg xmlns="http://www.w3.org/2000/svg" xmlns:xlink="http://www.w3.org/1999/xlink" version="1.1" x="0px" y="0px" viewBox="0 0 100 125" enable-background="new 0 0 100 100" xml:space="preserve"><g><path d="M51.1,26.3l-1.4-3.4l-1.4,3.4C45.3,33.7,33,46,25.6,48.9l-3.4,1.4l3.4,1.4c7.4,3,19.6,15.3,22.6,22.6l1.4,3.4l1.4-3.4   c3-7.4,15.3-19.6,22.6-22.6l3.4-1.4l-3.4-1.4C66.3,46,54,33.7,51.1,26.3z M49.7,70.4c-4.1-7-13.1-16-20.1-20.1   c7-4.1,16-13.1,20.1-20.1c4.1,7,13.1,16,20.1,20.1C62.8,54.4,53.7,63.4,49.7,70.4z"/><path d="M51.1,38.6l-1.4-3.4l-1.4,3.4c-1.3,3.3-7,9-10.3,10.3l-3.4,1.4l3.4,1.4c3.3,1.3,9,7,10.3,10.3l1.4,3.4l1.4-3.4   c1.3-3.3,7-9,10.3-10.3l3.4-1.4l-3.4-1.4C58.1,47.6,52.4,41.9,51.1,38.6z"/><path d="M74.8,39.9c0.6-6.7,1.8-12.4,3.4-16.2l1.4-3.4l-3.4,1.4c-3.8,1.6-9.5,2.8-16.2,3.4c-4.4-5.2-7.5-10-9-13.9l-1.4-3.4   l-1.4,3.4c-1.5,3.8-4.7,8.7-9,13.9c-6.7-0.6-12.4-1.8-16.2-3.4l-3.4-1.4l1.4,3.4c1.6,3.8,2.8,9.5,3.4,16.2   c-5.2,4.3-10.1,7.5-13.9,9l-3.4,1.4l3.4,1.4c3.8,1.5,8.7,4.7,13.9,9c-0.6,6.7-1.8,12.4-3.4,16.2l-1.4,3.4l3.4-1.4   c3.8-1.6,9.5-2.8,16.2-3.4c4.4,5.2,7.5,10,9,13.9l1.4,3.4l1.4-3.4c1.5-3.8,4.7-8.7,9-13.9c6.7,0.6,12.4,1.8,16.2,3.4l3.4,1.4   l-1.4-3.4c-1.6-3.8-2.8-9.5-3.4-16.2c5.2-4.3,10.1-7.5,13.9-9l3.4-1.4l-3.4-1.4C84.9,47.4,80,44.2,74.8,39.9z M72.3,59l-0.6,0.5   l0.1,0.8c0.5,5.8,1.4,10.8,2.6,14.8c-4-1.2-9-2.1-14.8-2.6l-0.8-0.1L58.3,73c-3.8,4.5-6.7,8.6-8.6,12.3c-1.9-3.7-4.9-7.9-8.6-12.3   l-0.5-0.6l-0.8,0.1C34,72.9,28.9,73.8,25,75c1.2-4,2.1-9,2.6-14.8l0.1-0.8L27,59c-4.4-3.8-8.6-6.7-12.3-8.6   c3.7-1.9,7.9-4.9,12.3-8.6l0.6-0.5l-0.1-0.8c-0.5-5.8-1.4-10.8-2.6-14.8c4,1.2,9,2.1,14.8,2.6l0.8,0.1l0.5-0.6   c3.8-4.4,6.7-8.6,8.6-12.3c1.9,3.7,4.9,7.9,8.6,12.3l0.5,0.6l0.8-0.1c5.8-0.5,10.8-1.4,14.8-2.6c-1.2,4-2.1,9-2.6,14.8l-0.1,0.8   l0.6,0.5c4.4,3.8,8.6,6.7,12.3,8.6C80.9,52.3,76.7,55.2,72.3,59z"/></g></svg>
